PathFileType	4	(X/Y/Z)	C:\Users\WrightLab\Desktop\Jo\P2_Trial8.trc
DataRate	CameraRate	NumFrames	NumMarkers	Units	OrigDataRate	OrigDataStartFrame	OrigNumFrames
100.00	100.00	       21	19	mm	100.00	816	       932
Frame#	Time	Headset_Front			Headset_Back			Headset_Left			Headset_Right			Left_Shoulder			Right_Shoulder			Sternum			C7			Left Elbow			Right Elbow			Left Wrist			Right Wrist			Left ASIS			Right ASIS			S2			Left Knee			Right Knee			Left Ankle			Right Ankle			
		X1	Y1	Z1	X2	Y2	Z2	X3	Y3	Z3	X4	Y4	Z4	X5	Y5	Z5	X6	Y6	Z6	X7	Y7	Z7	X8	Y8	Z8	X9	Y9	Z9	X10	Y10	Z10	X11	Y11	Z11	X12	Y12	Z12	X13	Y13	Z13	X14	Y14	Z14	X15	Y15	Z15	X16	Y16	Z16	X17	Y17	Z17	X18	Y18	Z18	X19	Y19	Z19	

816	8.150	-117.65776	1067.06384	-1418.56860													-341.50516	1381.71680	-986.38733				-422.55304	1365.20630	-1154.69507				-485.11588	1098.01819	-855.90448	-267.38220	1066.58118	-1435.27637	-488.74631	914.48096	-708.69055				-239.14653	945.76361	-1071.53467	-482.37393	886.12921	-1185.11621				-347.15814	487.31680	-859.23212				-300.26617	82.47855	-729.85248	
817	8.160	-104.50558	1065.49121	-1424.68518													-339.66861	1383.85510	-998.58398				-418.83755	1367.92065	-1166.51965				-490.50183	1101.87244	-871.67072	-252.86040	1066.89624	-1443.83386	-511.55368	917.03101	-725.54712				-239.23079	947.62671	-1077.84680	-480.63611	889.17303	-1199.82935				-351.01797	490.05463	-868.76453				-301.36853	89.77392	-733.14014	
818	8.170	-92.30017	1064.28748	-1429.87891													-340.90182	1387.38110	-1009.05994				-415.09641	1371.08228	-1178.58276				-494.94147	1106.37769	-888.03741	-239.65514	1068.87878	-1453.83777	-534.65167	921.51849	-744.69043				-238.66261	950.53271	-1089.58167							-354.08725	493.68774	-881.37408				-304.24875	96.51930	-735.56067	
819	8.180	-80.79617	1063.96643	-1434.96204													-338.70584	1391.15918	-1020.31317				-411.37259	1374.18213	-1190.45410				-500.74738	1111.01245	-903.25513	-227.74898	1070.47314	-1461.68494	-554.49677	924.84515	-763.59753				-238.24899	954.37726	-1098.00623							-358.54648	496.68066	-894.18982				-306.71143	105.47835	-739.33173	
820	8.190	-70.41549	1063.97803	-1439.27124													-336.48108	1394.98767	-1030.54517				-407.44534	1377.46643	-1202.14990				-507.28513	1116.58398	-918.73517	-216.70915	1073.33838	-1470.19238	-577.74225	930.59784	-788.04230				-238.79282	959.04797	-1106.40369							-361.63043	499.74438	-907.93890				-310.51511	113.87453	-742.86646	
821	8.200																-335.37930	1398.97607	-1041.32532				-403.59186	1380.49158	-1214.16809				-512.84521	1123.35156	-933.81439	-206.62440	1076.02832	-1478.25073	-598.35132	936.38696	-810.54608				-239.50418	962.18713	-1117.50903							-365.18188	502.38516	-921.68109				-315.83029	121.89616	-747.61212	
822	8.210																-334.62280	1403.02490	-1050.59192										-518.93213	1130.26611	-948.80408	-197.32697	1078.56848	-1485.41956	-616.11469	940.89551	-834.89612				-240.08330	967.17926	-1119.59534							-369.11432	505.40057	-935.73083				-322.54453	129.65100	-752.46875	
823	8.220																-334.43753	1407.57361	-1062.02063										-525.78375	1136.97595	-963.28986	-188.78452	1081.11230	-1492.76013	-632.31512	946.43842	-859.94806				-240.99088	970.35852	-1128.37366							-371.02026	507.96332	-950.19122				-329.52405	137.18285	-759.48944	
824	8.230																												-533.89905	1144.30603	-978.09857	-180.77528	1083.19165	-1499.25208	-648.64124	952.02759	-885.16528				-243.78299	974.22595	-1133.08179							-373.54309	510.68375	-965.59125				-338.34589	143.19264	-765.99615	
825	8.240																												-541.24756	1151.93652	-992.72034	-173.49854	1085.24976	-1506.42651	-663.32159	959.01654	-909.52686				-244.83902	977.66077	-1135.12634							-375.91473	511.57993	-980.51501				-347.15863	148.82843	-773.17438	
826	8.250																												-548.23431	1159.14209	-1008.78094	-166.74641	1086.82776	-1512.40540	-677.64569	965.59998	-934.94470				-246.86856	978.53101	-1142.63867							-376.91940	513.37805	-994.96368				-356.42325	153.98340	-782.68323	
827	8.260																												-555.29041	1167.61096	-1023.82770	-160.52039	1088.11963	-1518.46277	-689.62079	971.20514	-959.03851				-248.71906	981.22223	-1145.67163							-379.22366	514.64105	-1013.27399				-367.44205	158.84134	-794.55243	
828	8.270																												-561.97906	1174.10791	-1040.62219	-154.62988	1089.35535	-1524.06360	-701.39502	978.82800	-984.85126				-250.10019	984.65369	-1145.98206							-381.61008	513.40643	-1032.64771				-375.97064	161.88849	-806.93353	
829	8.280																												-568.37030	1180.02844	-1058.13855	-149.14476	1090.20215	-1529.34900	-713.13507	985.11041	-1007.15588				-251.34622	984.73590	-1155.96472							-382.52774	514.81805	-1047.54651				-385.85083	164.25885	-820.11188	
830	8.290																												-574.77649	1184.77893	-1075.38123	-143.78099	1091.49829	-1534.98145	-721.90448	990.49243	-1032.42371				-252.85823	986.34222	-1160.43005							-383.31750	514.23389	-1066.57483				-393.39194	165.67271	-832.81866	
831	8.300																												-581.09479	1189.73962	-1093.54724	-138.66100	1092.13416	-1539.82959	-730.93933	996.11432	-1055.78821				-253.21216	986.58087	-1162.61902							-384.93118	513.22388	-1084.25134				-401.06824	166.26520	-848.13257	
832	8.310																												-586.98846	1195.01379	-1113.62402	-133.51749	1092.50659	-1544.10144	-738.68036	999.52551	-1078.22876				-255.81007	987.45276	-1168.85876							-385.16132	510.81039	-1101.30615				-408.50223	167.12367	-863.92719	
833	8.320																												-592.76410	1198.08594	-1131.59375	-128.51451	1092.51794	-1547.83899	-747.05042	1004.01587	-1100.27356				-257.49408	988.71808	-1174.29126							-384.88876	509.05112	-1120.75415				-415.83127	166.89886	-880.26642	
834	8.330																												-597.11743	1200.56799	-1149.79736	-123.57677	1092.41296	-1551.70251	-752.52246	1006.23041	-1122.33960				-258.93759	988.89563	-1177.31641							-384.90622	508.39664	-1137.77820				-423.75198	165.54175	-897.43805	
835	8.340																												-601.69775	1203.86975	-1169.38989	-118.64298	1092.25159	-1555.31189	-757.56506	1008.00317	-1142.69446				-261.79031	990.14392	-1185.39294							-384.36414	508.32446	-1156.95898				-432.31451	164.79610	-916.21924	
836	8.350																												-605.34479	1206.19885	-1189.43726	-113.80381	1091.71521	-1558.22534	-761.50824	1010.47528	-1166.17114				-261.77863	990.58575	-1191.83276							-385.11053	509.50543	-1171.60034				-442.17773	163.96037	-938.07239	
